<svg width="13" height="8" viewBox="0 0 13 8" fill="none" xmlns="http://www.w3.org/2000/svg">
<path d="M2.28712 2.45251C1.5506 2.45251 0.947998 3.05512 0.947998 3.79164C0.947998 4.52816 1.5506 5.13077 2.28712 5.13077C3.02364 5.13077 3.62625 4.52816 3.62625 3.79164C3.62625 3.05512 3.02364 2.45251 2.28712 2.45251Z" fill="#666666"/>
<path d="M11.6609 2.45251C10.9244 2.45251 10.3218 3.05512 10.3218 3.79164C10.3218 4.52816 10.9244 5.13077 11.6609 5.13077C12.3974 5.13077 13 4.52816 13 3.79164C13 3.05512 12.3974 2.45251 11.6609 2.45251Z" fill="#666666"/>
<path d="M6.97414 2.45251C6.23762 2.45251 5.63501 3.05512 5.63501 3.79164C5.63501 4.52816 6.23762 5.13077 6.97414 5.13077C7.71065 5.13077 8.31326 4.52816 8.31326 3.79164C8.31326 3.05512 7.71065 2.45251 6.97414 2.45251Z" fill="#666666"/>
</svg>
